<svg width="316" height="113" viewBox="0 0 316 113" fill="none" xmlns="http://www.w3.org/2000/svg">
<path d="M67.6809 49V15.256H81.1689C87.9849 15.256 94.2249 18.952 94.2249 26.44C94.2249 34.168 88.0329 38.008 81.1689 38.008H75.3129V49H67.6809ZM75.3129 21.976V31.288H80.7369C83.7609 31.288 86.2089 29.752 86.2089 26.536C86.2089 23.464 83.7609 21.976 80.7369 21.976H75.3129ZM108.702 46.216C106.878 48.808 104.046 49.624 101.742 49.624C97.1817 49.624 93.7257 46.936 93.7257 42.664C93.7257 38.44 96.3177 35.848 102.414 34.504L108.414 33.16V32.92C108.414 31.144 107.118 29.944 105.006 29.944C102.798 29.944 101.454 31.096 101.262 32.824H94.2057C94.4937 27.88 98.8617 23.944 105.15 23.944C112.254 23.944 115.614 28.216 115.614 33.64V49H108.702V46.216ZM108.414 38.92V38.104L104.334 38.968C102.174 39.448 100.878 40.264 100.878 41.704C100.878 43.24 101.886 43.912 103.662 43.912C106.35 43.912 108.414 41.416 108.414 38.92ZM141.246 24.568L128.91 59.176H121.566L124.878 49.72L115.518 24.568H123.246L128.478 39.832L133.71 24.568H141.246ZM142.184 49V24.568H149.144V27.544C150.872 25 153.56 23.944 156.152 23.944C159.56 23.944 162.056 25.48 163.448 27.928C165.272 25.192 168.2 23.944 171.272 23.944C176.696 23.944 179.864 27.736 179.864 32.968V49H172.568V34.936C172.568 32.728 171.608 30.664 168.728 30.664C165.8 30.664 164.696 32.872 164.696 35.176V49H157.4V34.936C157.4 32.728 156.392 30.664 153.512 30.664C150.632 30.664 149.48 32.872 149.48 35.176V49H142.184ZM199.789 41.08H206.845C205.357 46.264 200.941 49.624 194.461 49.624C186.685 49.624 181.501 43.912 181.501 36.808C181.501 29.704 187.021 23.944 194.557 23.944C202.477 23.944 207.325 29.416 207.325 36.424V38.632H188.461C189.085 41.704 191.245 43.768 194.557 43.768C197.053 43.768 198.733 42.904 199.789 41.08ZM194.557 29.848C191.677 29.848 189.661 31.432 188.797 33.832H200.269C199.501 31.336 197.437 29.848 194.557 29.848ZM209.267 49V24.568H216.227V27.544C218.003 25 220.787 23.944 223.475 23.944C228.947 23.944 232.211 27.736 232.211 32.968V49H224.915V35.032C224.915 32.728 223.955 30.664 220.835 30.664C217.763 30.664 216.563 32.872 216.563 35.176V49H209.267ZM236.988 17.704L244.284 15.976V24.568H249.996V31.096H244.284V40.072C244.284 42.328 245.148 43.192 247.212 43.192C248.508 43.192 249.468 42.904 250.476 42.28V48.664C249.228 49.24 247.74 49.624 245.484 49.624C239.244 49.624 236.988 46.168 236.988 40.696V31.096H233.34V24.568H236.988V17.704Z" fill="#242424"/>
<path d="M73.1652 98V64.256H86.6533C93.3253 64.256 99.5653 67.712 99.5653 74.864C99.5653 80.288 96.1093 83.648 91.5493 85.04L101.293 98H91.9813L83.0532 85.712H80.7973V98H73.1652ZM80.7973 70.88V79.52H86.2692C89.1973 79.52 91.5972 78.032 91.5972 75.104C91.5972 72.272 89.1973 70.88 86.2692 70.88H80.7973ZM118.007 90.08H125.063C123.575 95.264 119.159 98.624 112.679 98.624C104.903 98.624 99.719 92.912 99.719 85.808C99.719 78.704 105.239 72.944 112.775 72.944C120.695 72.944 125.543 78.416 125.543 85.424V87.632H106.679C107.303 90.704 109.463 92.768 112.775 92.768C115.271 92.768 116.951 91.904 118.007 90.08ZM112.775 78.848C109.895 78.848 107.879 80.432 107.015 82.832H118.487C117.719 80.336 115.655 78.848 112.775 78.848ZM137.517 98.624C130.701 98.624 125.949 93.296 125.949 85.904C125.949 78.416 130.701 72.944 137.565 72.944C141.213 72.944 143.949 74.528 145.773 76.976V73.568H152.637V108.176H145.341V94.928C143.565 97.184 140.925 98.624 137.517 98.624ZM139.629 92.048C143.325 92.048 145.581 89.216 145.581 85.808C145.581 82.352 143.325 79.568 139.629 79.568C135.837 79.568 133.581 82.352 133.581 85.808C133.581 89.168 135.837 92.048 139.629 92.048ZM171.082 87.44V73.568H178.378V98H171.466V95.072C169.738 97.568 167.049 98.624 164.458 98.624C159.082 98.624 155.914 94.784 155.914 89.6V73.568H163.21V87.536C163.21 89.888 164.17 92.048 167.002 92.048C169.978 92.048 171.082 89.792 171.082 87.44ZM198.523 90.08H205.579C204.091 95.264 199.675 98.624 193.195 98.624C185.419 98.624 180.235 92.912 180.235 85.808C180.235 78.704 185.755 72.944 193.291 72.944C201.211 72.944 206.059 78.416 206.059 85.424V87.632H187.195C187.819 90.704 189.979 92.768 193.291 92.768C195.787 92.768 197.467 91.904 198.523 90.08ZM193.291 78.848C190.411 78.848 188.395 80.432 187.531 82.832H199.003C198.235 80.336 196.171 78.848 193.291 78.848ZM227.49 81.008H220.05C220.05 78.944 218.61 78.512 217.218 78.512C215.778 78.512 214.53 79.04 214.53 80.24C214.53 81.488 215.442 81.92 217.554 82.4L219.522 82.832C224.322 83.888 227.922 85.52 227.922 90.416C227.922 95.888 223.41 98.624 217.506 98.624C211.122 98.624 206.562 96.08 206.226 90.032H213.906C213.906 92.288 215.394 93.104 217.314 93.104C219.186 93.104 220.386 92.432 220.386 91.04C220.386 89.696 219.378 89.168 217.602 88.784L215.25 88.304C210.93 87.44 207.138 85.76 207.138 80.768C207.138 75.728 211.746 72.944 217.314 72.944C222.882 72.944 227.058 75.488 227.49 81.008ZM231.504 66.704L238.8 64.976V73.568H244.512V80.096H238.8V89.072C238.8 91.328 239.664 92.192 241.728 92.192C243.024 92.192 243.984 91.904 244.992 91.28V97.664C243.744 98.24 242.256 98.624 240 98.624C233.76 98.624 231.504 95.168 231.504 89.696V80.096H227.856V73.568H231.504V66.704Z" fill="#242424"/>
</svg>
