<svg width="316" height="113" viewBox="0 0 316 113" fill="none" xmlns="http://www.w3.org/2000/svg">
<path d="M56.7796 49V15.256H70.2676C77.0836 15.256 83.3236 18.952 83.3236 26.44C83.3236 34.168 77.1316 38.008 70.2676 38.008H64.4116V49H56.7796ZM64.4116 21.976V31.288H69.8356C72.8596 31.288 75.3076 29.752 75.3076 26.536C75.3076 23.464 72.8596 21.976 69.8356 21.976H64.4116ZM97.8005 46.216C95.9765 48.808 93.1445 49.624 90.8405 49.624C86.2805 49.624 82.8245 46.936 82.8245 42.664C82.8245 38.44 85.4165 35.848 91.5125 34.504L97.5125 33.16V32.92C97.5125 31.144 96.2165 29.944 94.1045 29.944C91.8965 29.944 90.5525 31.096 90.3605 32.824H83.3045C83.5925 27.88 87.9605 23.944 94.2485 23.944C101.352 23.944 104.713 28.216 104.713 33.64V49H97.8005V46.216ZM97.5125 38.92V38.104L93.4325 38.968C91.2725 39.448 89.9765 40.264 89.9765 41.704C89.9765 43.24 90.9845 43.912 92.7605 43.912C95.4485 43.912 97.5125 41.416 97.5125 38.92ZM130.345 24.568L118.009 59.176H110.665L113.977 49.72L104.617 24.568H112.345L117.577 39.832L122.809 24.568H130.345ZM154.418 24.568L142.082 59.176H134.738L138.05 49.72L128.69 24.568H136.418L141.65 39.832L146.882 24.568H154.418ZM162.989 49V15.256H170.237L183.101 36.136V15.256H190.301V49H183.005L170.189 28.264V49H162.989ZM205.463 23.944C213.383 23.944 218.711 29.704 218.711 36.76C218.711 43.864 213.383 49.624 205.463 49.624C197.447 49.624 192.215 43.864 192.215 36.76C192.215 29.704 197.447 23.944 205.463 23.944ZM205.463 30.664C201.815 30.664 199.463 33.4 199.463 36.808C199.463 40.216 201.815 42.904 205.463 42.904C209.111 42.904 211.511 40.216 211.511 36.808C211.511 33.4 209.111 30.664 205.463 30.664ZM221.988 17.704L229.284 15.976V24.568H234.996V31.096H229.284V40.072C229.284 42.328 230.148 43.192 232.212 43.192C233.508 43.192 234.468 42.904 235.476 42.28V48.664C234.228 49.24 232.74 49.624 230.484 49.624C224.244 49.624 221.988 46.168 221.988 40.696V31.096H218.34V24.568H221.988V17.704ZM253.774 41.08H260.83C259.342 46.264 254.926 49.624 248.446 49.624C240.67 49.624 235.486 43.912 235.486 36.808C235.486 29.704 241.006 23.944 248.542 23.944C256.462 23.944 261.31 29.416 261.31 36.424V38.632H242.446C243.07 41.704 245.23 43.768 248.542 43.768C251.038 43.768 252.718 42.904 253.774 41.08ZM248.542 29.848C245.662 29.848 243.646 31.432 242.782 33.832H254.254C253.486 31.336 251.422 29.848 248.542 29.848Z" fill="#242424"/>
<path d="M62.1834 98V64.256H75.6714C82.3434 64.256 88.5834 67.712 88.5834 74.864C88.5834 80.288 85.1274 83.648 80.5674 85.04L90.3114 98H80.9994L72.0714 85.712H69.8154V98H62.1834ZM69.8154 70.88V79.52H75.2874C78.2154 79.52 80.6154 78.032 80.6154 75.104C80.6154 72.272 78.2154 70.88 75.2874 70.88H69.8154ZM107.025 90.08H114.081C112.593 95.264 108.177 98.624 101.697 98.624C93.9211 98.624 88.7371 92.912 88.7371 85.808C88.7371 78.704 94.2571 72.944 101.793 72.944C109.713 72.944 114.561 78.416 114.561 85.424V87.632H95.6971C96.3211 90.704 98.4811 92.768 101.793 92.768C104.289 92.768 105.969 91.904 107.025 90.08ZM101.793 78.848C98.9131 78.848 96.8971 80.432 96.0331 82.832H107.505C106.737 80.336 104.673 78.848 101.793 78.848ZM140.888 83.648H133.64C132.968 81.296 130.952 79.664 128.168 79.664C124.52 79.664 122.216 82.4 122.216 85.808C122.216 89.216 124.52 91.904 128.168 91.904C131 91.904 133.016 90.224 133.688 87.872H140.888C140.024 93.968 135.128 98.624 128.168 98.624C120.152 98.624 114.92 92.864 114.92 85.76C114.92 78.704 120.152 72.944 128.168 72.944C135.128 72.944 140.024 77.6 140.888 83.648ZM159.39 90.08H166.446C164.958 95.264 160.542 98.624 154.062 98.624C146.286 98.624 141.102 92.912 141.102 85.808C141.102 78.704 146.622 72.944 154.158 72.944C162.078 72.944 166.926 78.416 166.926 85.424V87.632H148.062C148.686 90.704 150.846 92.768 154.158 92.768C156.654 92.768 158.334 91.904 159.39 90.08ZM154.158 78.848C151.278 78.848 149.262 80.432 148.398 82.832H159.87C159.102 80.336 157.038 78.848 154.158 78.848ZM172.517 62.144C175.397 62.144 177.077 64.112 177.077 66.512C177.077 68.816 175.397 70.832 172.517 70.832C169.685 70.832 168.005 68.816 168.005 66.512C168.005 64.112 169.685 62.144 172.517 62.144ZM168.917 98V73.568H176.213V98H168.917ZM185.963 98L177.179 73.568H184.907L190.187 88.832L195.419 73.568H202.955L194.123 98H185.963ZM219.75 90.08H226.806C225.318 95.264 220.902 98.624 214.422 98.624C206.646 98.624 201.462 92.912 201.462 85.808C201.462 78.704 206.982 72.944 214.518 72.944C222.438 72.944 227.286 78.416 227.286 85.424V87.632H208.422C209.046 90.704 211.206 92.768 214.518 92.768C217.014 92.768 218.694 91.904 219.75 90.08ZM214.518 78.848C211.638 78.848 209.622 80.432 208.758 82.832H220.23C219.462 80.336 217.398 78.848 214.518 78.848ZM239.261 98.624C232.445 98.624 227.693 93.296 227.693 85.904C227.693 78.416 232.445 72.944 239.309 72.944C242.669 72.944 245.309 74.288 247.085 76.448V62.432H254.381V98H247.517V94.448C245.693 96.944 242.957 98.624 239.261 98.624ZM241.373 92.048C245.069 92.048 247.325 89.216 247.325 85.808C247.325 82.352 245.069 79.568 241.373 79.568C237.581 79.568 235.325 82.352 235.325 85.808C235.325 89.168 237.581 92.048 241.373 92.048Z" fill="#242424"/>
</svg>
