<svg width="302" height="97" viewBox="0 0 302 97" fill="none" xmlns="http://www.w3.org/2000/svg">
<path d="M35.8847 36V24.624L24.4607 2.256H33.1487L39.7727 16.272L46.7807 2.256H54.7967L43.5167 24.24V36H35.8847ZM63.1123 10.944C71.0323 10.944 76.3603 16.704 76.3603 23.76C76.3603 30.864 71.0323 36.624 63.1123 36.624C55.0963 36.624 49.8643 30.864 49.8643 23.76C49.8643 16.704 55.0963 10.944 63.1123 10.944ZM63.1123 17.664C59.4643 17.664 57.1123 20.4 57.1123 23.808C57.1123 27.216 59.4643 29.904 63.1123 29.904C66.7603 29.904 69.1603 27.216 69.1603 23.808C69.1603 20.4 66.7603 17.664 63.1123 17.664ZM93.2631 25.44V11.568H100.559V36H93.6471V33.072C91.9191 35.568 89.2311 36.624 86.6391 36.624C81.2631 36.624 78.0951 32.784 78.0951 27.6V11.568H85.3911V25.536C85.3911 27.888 86.3511 30.048 89.1831 30.048C92.1591 30.048 93.2631 27.792 93.2631 25.44ZM102.897 18.528L106.833 10.704C104.913 9.936 103.905 8.112 103.905 6.384C103.905 3.696 105.825 1.584 108.705 1.584C111.585 1.584 113.553 3.696 113.553 6.336C113.553 7.296 113.217 8.16 112.785 8.976L108.081 18.528H102.897ZM121.236 36L112.452 11.568H120.18L125.46 26.832L130.692 11.568H138.228L129.396 36H121.236ZM155.023 28.08H162.079C160.591 33.264 156.175 36.624 149.695 36.624C141.919 36.624 136.735 30.912 136.735 23.808C136.735 16.704 142.255 10.944 149.791 10.944C157.711 10.944 162.559 16.416 162.559 23.424V25.632H143.695C144.319 28.704 146.479 30.768 149.791 30.768C152.287 30.768 153.967 29.904 155.023 28.08ZM149.791 16.848C146.911 16.848 144.895 18.432 144.031 20.832H155.503C154.735 18.336 152.671 16.848 149.791 16.848ZM172.309 36V0.431997H179.605V14.64C181.429 12.432 184.069 10.944 187.477 10.944C194.293 10.944 198.997 16.272 198.997 23.712C198.997 31.2 194.245 36.624 187.381 36.624C183.781 36.624 181.045 35.088 179.269 32.688V36H172.309ZM185.365 17.568C181.621 17.568 179.413 20.4 179.413 23.808C179.413 27.216 181.621 30.048 185.365 30.048C189.109 30.048 191.365 27.216 191.365 23.808C191.365 20.4 189.109 17.568 185.365 17.568ZM217.68 28.08H224.736C223.248 33.264 218.832 36.624 212.352 36.624C204.576 36.624 199.392 30.912 199.392 23.808C199.392 16.704 204.912 10.944 212.448 10.944C220.368 10.944 225.216 16.416 225.216 23.424V25.632H206.352C206.976 28.704 209.136 30.768 212.448 30.768C214.944 30.768 216.624 29.904 217.68 28.08ZM212.448 16.848C209.568 16.848 207.552 18.432 206.688 20.832H218.16C217.392 18.336 215.328 16.848 212.448 16.848ZM243.862 28.08H250.918C249.43 33.264 245.014 36.624 238.534 36.624C230.758 36.624 225.574 30.912 225.574 23.808C225.574 16.704 231.094 10.944 238.63 10.944C246.55 10.944 251.398 16.416 251.398 23.424V25.632H232.534C233.158 28.704 235.318 30.768 238.63 30.768C241.126 30.768 242.806 29.904 243.862 28.08ZM238.63 16.848C235.75 16.848 233.734 18.432 232.87 20.832H244.342C243.574 18.336 241.51 16.848 238.63 16.848ZM253.341 36V11.568H260.301V14.544C262.077 12 264.861 10.944 267.549 10.944C273.021 10.944 276.285 14.736 276.285 19.968V36H268.989V22.032C268.989 19.728 268.029 17.664 264.909 17.664C261.837 17.664 260.637 19.872 260.637 22.176V36H253.341ZM4.73382 50.144C7.61382 50.144 9.29382 52.112 9.29382 54.512C9.29382 56.816 7.61382 58.832 4.73382 58.832C1.90182 58.832 0.221816 56.816 0.221816 54.512C0.221816 52.112 1.90182 50.144 4.73382 50.144ZM1.13382 86V61.568H8.42982V86H1.13382ZM11.9402 86V61.568H18.9002V64.544C20.6762 62 23.4602 60.944 26.1482 60.944C31.6202 60.944 34.8842 64.736 34.8842 69.968V86H27.5882V72.032C27.5882 69.728 26.6282 67.664 23.5082 67.664C20.4362 67.664 19.2362 69.872 19.2362 72.176V86H11.9402ZM43.7533 86L34.9693 61.568H42.6973L47.9773 76.832L53.2093 61.568H60.7453L51.9133 86H43.7533ZM65.3282 50.144C68.2082 50.144 69.8882 52.112 69.8882 54.512C69.8882 56.816 68.2082 58.832 65.3282 58.832C62.4962 58.832 60.8162 56.816 60.8162 54.512C60.8162 52.112 62.4962 50.144 65.3282 50.144ZM61.7282 86V61.568H69.0242V86H61.7282ZM74.1666 54.704L81.4626 52.976V61.568H87.1746V68.096H81.4626V77.072C81.4626 79.328 82.3266 80.192 84.3906 80.192C85.6866 80.192 86.6466 79.904 87.6546 79.28V85.664C86.4066 86.24 84.9186 86.624 82.6626 86.624C76.4226 86.624 74.1666 83.168 74.1666 77.696V68.096H70.5186V61.568H74.1666V54.704ZM105.952 78.08H113.008C111.52 83.264 107.104 86.624 100.624 86.624C92.8483 86.624 87.6643 80.912 87.6643 73.808C87.6643 66.704 93.1843 60.944 100.72 60.944C108.64 60.944 113.488 66.416 113.488 73.424V75.632H94.6243C95.2483 78.704 97.4083 80.768 100.72 80.768C103.216 80.768 104.896 79.904 105.952 78.08ZM100.72 66.848C97.8403 66.848 95.8243 68.432 94.9603 70.832H106.432C105.664 68.336 103.6 66.848 100.72 66.848ZM125.463 86.624C118.647 86.624 113.895 81.296 113.895 73.904C113.895 66.416 118.647 60.944 125.511 60.944C128.871 60.944 131.511 62.288 133.287 64.448V50.432H140.583V86H133.719V82.448C131.895 84.944 129.159 86.624 125.463 86.624ZM127.575 80.048C131.271 80.048 133.527 77.216 133.527 73.808C133.527 70.352 131.271 67.568 127.575 67.568C123.783 67.568 121.527 70.352 121.527 73.808C121.527 77.168 123.783 80.048 127.575 80.048ZM153.49 54.704L160.786 52.976V61.568H166.498V68.096H160.786V77.072C160.786 79.328 161.65 80.192 163.714 80.192C165.01 80.192 165.97 79.904 166.978 79.28V85.664C165.73 86.24 164.242 86.624 161.986 86.624C155.746 86.624 153.49 83.168 153.49 77.696V68.096H149.842V61.568H153.49V54.704ZM180.236 60.944C188.156 60.944 193.484 66.704 193.484 73.76C193.484 80.864 188.156 86.624 180.236 86.624C172.22 86.624 166.988 80.864 166.988 73.76C166.988 66.704 172.22 60.944 180.236 60.944ZM180.236 67.664C176.588 67.664 174.236 70.4 174.236 73.808C174.236 77.216 176.588 79.904 180.236 79.904C183.884 79.904 186.284 77.216 186.284 73.808C186.284 70.4 183.884 67.664 180.236 67.664ZM203.794 86V52.256H217.282C224.098 52.256 230.338 55.952 230.338 63.44C230.338 71.168 224.146 75.008 217.282 75.008H211.426V86H203.794ZM211.426 58.976V68.288H216.85C219.874 68.288 222.322 66.752 222.322 63.536C222.322 60.464 219.874 58.976 216.85 58.976H211.426ZM244.815 83.216C242.991 85.808 240.159 86.624 237.855 86.624C233.295 86.624 229.839 83.936 229.839 79.664C229.839 75.44 232.431 72.848 238.527 71.504L244.527 70.16V69.92C244.527 68.144 243.231 66.944 241.119 66.944C238.911 66.944 237.567 68.096 237.375 69.824H230.319C230.607 64.88 234.975 60.944 241.263 60.944C248.367 60.944 251.727 65.216 251.727 70.64V86H244.815V83.216ZM244.527 75.92V75.104L240.447 75.968C238.287 76.448 236.991 77.264 236.991 78.704C236.991 80.24 237.999 80.912 239.775 80.912C242.463 80.912 244.527 78.416 244.527 75.92ZM277.36 61.568L265.024 96.176H257.68L260.992 86.72L251.632 61.568H259.36L264.592 76.832L269.824 61.568H277.36ZM301.433 61.568L289.097 96.176H281.753L285.065 86.72L275.705 61.568H283.433L288.665 76.832L293.897 61.568H301.433Z" fill="#242424"/>
</svg>
