<svg width="111" height="20" viewBox="0 0 111 20" fill="none" xmlns="http://www.w3.org/2000/svg">
<path fill-rule="evenodd" clip-rule="evenodd" d="M92.6916 6.21739L96.4615 13.9956H98.8307C98.5235 14.5221 98.2237 14.9096 97.9312 15.1582C97.6534 15.4069 97.3316 15.5677 96.966 15.6409C96.615 15.714 96.1251 15.7505 95.4962 15.7505C94.6334 15.7505 93.2221 15.5312 91.2624 15.0924V18.9314C92.1106 19.1801 92.9735 19.3702 93.8509 19.5018C94.7284 19.6334 95.5255 19.6992 96.2421 19.6992C97.5583 19.6992 98.6917 19.4652 99.6423 18.9972C100.593 18.5439 101.412 17.8785 102.099 17.001C102.801 16.1381 103.481 15.0266 104.139 13.6665L110.326 0.833305H105.214L100.235 11.1876L95.2819 0.843851L95.287 0.833305H95.2769H90.1756H90.1655L90.1706 0.843868L90.1556 0.874946L92.6916 6.21739ZM89.6949 1.83298L85.1959 11.1876L80.2381 0.833305H75.1268L81.4227 13.9956H83.7919C83.4848 14.5221 83.185 14.9096 82.8925 15.1582C82.6146 15.4069 82.2929 15.5677 81.9273 15.6409C81.5763 15.714 81.0864 15.7505 80.4575 15.7505C79.5946 15.7505 78.1833 15.5312 76.2236 15.0924V18.9314C77.0719 19.1801 77.9347 19.3702 78.8122 19.5018C79.6897 19.6334 80.4867 19.6992 81.2034 19.6992C82.5196 19.6992 83.653 19.4652 84.6036 18.9972C85.5542 18.5439 86.3732 17.8785 87.0606 17.001C87.7626 16.1381 88.4426 15.0266 89.1007 13.6665L92.2303 7.17431L89.6949 1.83298ZM53.1284 1.1531C52.0462 0.685107 50.8835 0.451111 49.6404 0.451111C48.3534 0.451111 47.1688 0.677794 46.0866 1.13116C45.019 1.5699 44.1707 2.27189 43.5419 3.23712V0.889853H38.4963V19.317H43.5419V11.7049C44.1707 12.6701 45.019 13.3794 46.0866 13.8328C47.1688 14.2715 48.3534 14.4909 49.6404 14.4909C50.8835 14.4909 52.0462 14.2642 53.1284 13.8108C54.2106 13.3428 55.0954 12.5897 55.7828 11.5513C56.4848 10.4983 56.8358 9.13821 56.8358 7.47099C56.8358 5.80377 56.4848 4.45098 55.7828 3.41262C55.0954 2.35964 54.2106 1.60647 53.1284 1.1531ZM50.5618 9.62083C49.9036 10.0888 48.9018 10.3228 47.5564 10.3228C46.2109 10.3228 45.2018 10.0888 44.529 9.62083C43.8709 9.15284 43.5419 8.43622 43.5419 7.47099C43.5419 6.50576 43.8709 5.78914 44.529 5.32115C45.2018 4.85316 46.2109 4.61916 47.5564 4.61916C48.9018 4.61916 49.9036 4.85316 50.5618 5.32115C51.2345 5.78914 51.5709 6.50576 51.5709 7.47099C51.5709 8.43622 51.2345 9.15284 50.5618 9.62083ZM68.1278 0.451111C69.9998 0.451111 71.5281 0.677794 72.7127 1.13116C73.9119 1.58453 74.804 2.31577 75.389 3.32487C75.9886 4.31936 76.2957 5.65021 76.3104 7.31743V10.6848V14.0521H71.2648V12.2972C70.168 12.9699 68.9541 13.4671 67.6233 13.7889C66.307 14.1106 65.0274 14.2715 63.7843 14.2715C61.9269 14.2715 60.4498 13.9424 59.353 13.2843C58.2561 12.6262 57.7077 11.5586 57.7077 10.0815C57.7077 8.44354 58.4316 7.28818 59.8794 6.61544C61.3273 5.92808 63.1261 5.5844 65.276 5.5844C67.1333 5.5844 69.1296 5.80377 71.2648 6.24251C71.2063 5.39428 70.8261 4.80197 70.1241 4.4656C69.4367 4.12924 68.4569 3.96105 67.1845 3.96105C66.0292 3.96105 64.8519 4.0488 63.6526 4.2243C62.468 4.38517 61.0787 4.64841 59.4846 5.01403L58.7826 1.5699C62.1317 0.824042 65.2467 0.451111 68.1278 0.451111ZM65.5173 10.7616C66.7165 10.7616 68.6324 10.5422 71.2648 10.1034V9.09434C69.2174 8.80184 67.4697 8.6556 66.0218 8.6556C64.9104 8.6556 64.1206 8.73603 63.6526 8.8969C63.1993 9.05778 62.9726 9.33565 62.9726 9.73051C62.9726 10.1108 63.1627 10.3813 63.5429 10.5422C63.9232 10.6884 64.5813 10.7616 65.5173 10.7616Z" fill="#242424"/>
<path fill-rule="evenodd" clip-rule="evenodd" d="M30.0594 16.5001V12.1598C30.0673 11.4025 30.0673 10.6478 30.0673 9.89304C30.0673 9.13831 30.0673 8.38358 30.0752 7.62631C30.0752 7.33391 29.9 7.33019 29.5746 7.32329C29.5478 7.32273 29.5201 7.32214 29.4914 7.32137C29.3985 7.31892 29.3052 7.31678 29.2116 7.31462C28.526 7.29884 27.8263 7.28273 27.1876 7.14857C25.9726 6.89445 25.1205 6.2744 24.4262 5.60353C23.9542 5.14256 23.5043 4.67212 23.0551 4.2025C22.5733 3.6987 22.0923 3.19583 21.586 2.70658C20.939 2.07636 20.2447 1.45632 19.4558 0.897254C18.4617 0.206052 17.1836 -0.0887243 15.7003 0.0230878C15.6828 0.0242938 15.6657 0.0254479 15.6489 0.0265788C15.2414 0.0540355 15.0376 0.0677635 15.0376 0.480501C15.0534 3.43844 15.0534 6.39638 15.0376 9.35431C15.0376 9.77214 15.192 9.75445 15.5935 9.70844C15.6177 9.70567 15.6428 9.7028 15.6688 9.69991C17.1678 9.54744 18.4932 9.84222 19.4716 10.5538C20.3907 11.2235 21.1803 11.9674 21.9641 12.7057C22.0011 12.7406 22.0381 12.7755 22.0751 12.8103C22.5069 13.2189 22.9099 13.6404 23.3124 14.0615C23.8512 14.6252 24.3891 15.188 24.9943 15.7174C26.0042 16.6119 27.4085 17.1608 29.2547 17.0389C29.3281 17.0348 29.3949 17.0318 29.4556 17.029C30.0082 17.0037 30.0594 17.0014 30.0594 16.5001ZM15.0218 19.4444V15.104C15.0297 14.3468 15.0297 13.592 15.0297 12.8373C15.0297 12.0826 15.0297 11.3278 15.0376 10.5706C15.0376 10.2782 14.8624 10.2745 14.537 10.2676C14.5102 10.267 14.4825 10.2664 14.4538 10.2656C14.3609 10.2632 14.2676 10.261 14.1741 10.2589C13.4884 10.2431 12.7887 10.227 12.15 10.0928C10.935 9.83871 10.0829 9.21866 9.38864 8.54779C8.91665 8.08682 8.46671 7.61638 8.01753 7.14676C7.53567 6.64296 7.0547 6.14009 6.54837 5.65084C5.90143 5.02063 5.20714 4.40058 4.41818 3.84152C3.42409 3.15032 2.14597 2.85554 0.662729 2.96735C0.645254 2.96856 0.628119 2.96971 0.611331 2.97084C0.203781 2.9983 0 3.01203 0 3.42476C0.0157766 6.3827 0.0157766 9.34064 0 12.2986C0 12.7164 0.154424 12.6987 0.555952 12.6527C0.580119 12.6499 0.605186 12.6471 0.63117 12.6442C2.13019 12.4917 3.45565 12.7865 4.43396 13.498C5.35308 14.1677 6.1427 14.9116 6.92648 15.65C6.9635 15.6849 7.00052 15.7197 7.03753 15.7546C7.46933 16.1631 7.87229 16.5847 8.27477 17.0057C8.81357 17.5694 9.35152 18.1322 9.95669 18.6617C10.9666 19.5562 12.3709 20.1051 14.2171 19.9831C14.2905 19.9791 14.3573 19.976 14.418 19.9733C14.9706 19.948 15.0218 19.9456 15.0218 19.4444Z" fill="#242424"/>
</svg>
